<svg width="1880" height="185" viewBox="0 0 1880 185" fill="none" xmlns="http://www.w3.org/2000/svg">
<g clip-path="url(#clip0_2245_6825)">
<path d="M0 124.827H50.5893C51.0867 142.257 63.5009 154.636 83.4796 154.636C101.945 154.636 111.064 145.549 111.064 135.943C111.064 126.338 104.992 120.521 83.9977 114.725L52.1229 105.886C23.7714 98.0398 3.79264 82.8867 3.79264 53.8225C3.79264 19.9557 35.17 0 79.687 0C127.002 0 152.555 19.2105 157.094 56.5965H109.033C107.272 38.6487 96.3912 30.3062 79.687 30.3062C62.9828 30.3062 54.9001 39.1456 54.9001 48.5024C54.9001 57.8592 60.9724 63.9246 77.1585 68.2097L109.033 76.5522C127.25 81.3549 162.151 89.9458 162.151 127.601C162.151 159.191 136.349 184.963 83.4796 184.963C27.8334 184.984 1.76161 158.942 0 124.827Z" fill="#DCDCDC"/>
<path d="M294.728 180.927L282.334 141.512H213.777L200.616 180.927H156.348L217.3 4.03711H285.858L345.317 180.927H294.728ZM224.139 110.419H272.469L249.195 35.8752L224.16 110.419H224.139Z" fill="#DCDCDC"/>
<path d="M351.369 180.927V4.03711H399.43V180.927H351.369Z" fill="#DCDCDC"/>
<path d="M539.094 4.03711H577.041V180.927H525.934L453.832 65.4362V180.927H415.885V4.03711H466.993L539.094 117.251V4.03711Z" fill="#DCDCDC"/>
<path d="M740.705 35.13H688.852V180.927H640.791V35.13H588.937V4.03711H740.726V35.1093L740.705 35.13Z" fill="#DCDCDC"/>
<path d="M981.339 4.03711H1020.55L959.08 180.927H919.102L886.73 73.7787L851.311 180.927H809.82L754.153 4.03711H803.478L833.322 111.185L867.995 4.03711H911.765L944.407 113.462L981.339 4.03711Z" fill="#DCDCDC"/>
<path d="M1010.91 92.492C1010.91 36.1439 1045.56 0 1098.95 0C1152.34 0 1186.99 36.1439 1186.99 92.492C1186.99 148.84 1152.34 184.984 1098.95 184.984C1045.56 184.984 1010.91 148.592 1010.91 92.492ZM1136.4 92.492C1136.4 53.0773 1122.74 30.3269 1098.95 30.3269C1075.16 30.3269 1061.5 53.0773 1061.5 92.492C1061.5 131.907 1074.91 154.657 1098.95 154.657C1122.99 154.657 1136.4 131.658 1136.4 92.492Z" fill="#DCDCDC"/>
<path d="M1349.91 138.987C1349.91 153.643 1350.16 168.548 1355.73 180.43V180.927H1303.88C1301.85 173.102 1300.09 162.731 1300.09 145.052V134.433C1300.09 112.945 1297.31 105.886 1274.04 105.886H1244.19V180.927H1196.13V4.03711H1286.7C1309.97 4.03711 1325.14 7.82539 1335.28 14.3876C1347.42 22.2126 1352.48 34.3433 1352.48 47.4885C1352.48 68.9761 1339.84 82.1005 1317.06 86.9031C1341.35 89.9255 1349.95 102.822 1349.95 129.112V138.966L1349.91 138.987ZM1272.23 75.3106C1277.29 75.3106 1285.89 75.3106 1291.96 71.2739C1296.52 68.2515 1299.8 63.1798 1299.8 54.3405C1299.8 46.2464 1297.02 41.1954 1292.96 38.4214C1286.88 34.3847 1278.53 34.3847 1272.46 34.3847H1244.13V75.3313H1272.21L1272.23 75.3106Z" fill="#DCDCDC"/>
<path d="M1530.03 180.927H1469.57L1413.91 101.332V180.927H1365.85V4.03711H1413.91V75.559L1473.86 4.03711H1526.98L1457.91 84.1499L1530.01 180.927H1530.03Z" fill="#DCDCDC"/>
<path d="M1515.85 124.827H1566.44C1566.94 142.257 1579.35 154.636 1599.33 154.636C1617.8 154.636 1626.92 145.549 1626.92 135.943C1626.92 126.338 1620.84 120.521 1599.85 114.725L1567.98 105.886C1539.64 98.0605 1519.65 82.8867 1519.65 53.8225C1519.65 19.9557 1551.02 0 1595.54 0C1642.85 0 1668.41 19.2105 1672.95 56.5965H1624.89C1623.12 38.6487 1612.24 30.3062 1595.54 30.3062C1578.84 30.3062 1570.75 39.1456 1570.75 48.5024C1570.75 57.8592 1576.83 63.9246 1593.01 68.2097L1624.89 76.5522C1643.1 81.3549 1678 89.9458 1678 127.601C1678 159.191 1652.2 184.963 1599.33 184.963C1543.67 184.963 1517.61 158.942 1515.85 124.827Z" fill="#DCDCDC"/>
<path d="M1689.75 92.492C1689.75 40.9465 1730.74 0 1784.87 0C1839.01 0 1880 40.9465 1880 92.492C1880 144.037 1839.01 184.984 1784.87 184.984C1730.74 184.984 1689.75 144.037 1689.75 92.492ZM1860.77 92.492C1860.77 50.2827 1828.64 18.1962 1784.87 18.1962C1741.1 18.1962 1708.98 50.2827 1708.98 92.492C1708.98 134.701 1741.1 166.788 1784.87 166.788C1828.64 166.788 1860.77 134.701 1860.77 92.492ZM1736.29 92.2436C1736.29 60.4055 1756.79 39.6838 1786.88 39.6838C1813.7 39.6838 1828.62 54.8369 1832.17 70.756H1808.89C1806.12 63.9246 1798.78 57.8592 1786.88 57.8592C1771.71 57.8592 1760.07 70.2384 1760.07 92.2229C1760.07 114.207 1772.21 126.835 1787.9 126.835C1800.29 126.835 1807.88 120.004 1809.41 112.945H1832.44C1829.41 129.36 1814.47 145.279 1787.92 145.279C1756.81 145.279 1736.31 124.558 1736.31 92.2229L1736.29 92.2436Z" fill="#DCDCDC"/>
<ellipse cx="746.047" cy="161.358" rx="23.676" ry="23.6257" fill="#DCDCDC"/>
</g>
<defs>
<clipPath id="clip0_2245_6825">
<rect width="1880" height="185" fill="white"/>
</clipPath>
</defs>
</svg>
