<svg width="876" height="579" viewBox="0 0 876 579" fill="none" xmlns="http://www.w3.org/2000/svg">
<path d="M215.397 205.245H252.574L194.294 373.314H156.39L125.697 271.509L92.1165 373.314H52.7783L0 205.245H46.7656L75.0609 307.05L107.934 205.245H149.434L180.382 309.214L215.397 205.245Z" fill="#E7FF5C"/>
<path d="M243.437 289.29C243.437 235.752 276.291 201.41 326.908 201.41C377.524 201.41 410.378 235.752 410.378 289.29C410.378 342.828 377.524 377.169 326.908 377.169C276.291 377.169 243.437 342.592 243.437 289.29ZM362.414 289.29C362.414 251.841 349.465 230.225 326.908 230.225C304.35 230.225 291.401 251.841 291.401 289.29C291.401 326.739 304.114 348.355 326.908 348.355C349.701 348.355 362.414 326.503 362.414 289.29Z" fill="#E7FF5C"/>
<path d="M564.842 333.465C564.842 347.391 565.078 361.552 570.364 372.842V373.314H521.201C519.275 365.879 517.605 356.025 517.605 339.228V329.138C517.605 308.722 514.972 302.015 492.906 302.015H464.61V373.314H419.043V205.245H504.911C526.978 205.245 541.361 208.844 550.97 215.079C562.484 222.514 567.279 234.04 567.279 246.53C567.279 266.946 555.293 279.416 533.698 283.979C556.727 286.85 564.881 299.104 564.881 324.083V333.445L564.842 333.465ZM491.196 272.964C495.991 272.964 504.145 272.964 509.902 269.129C514.225 266.257 517.33 261.438 517.33 253.04C517.33 245.35 514.697 240.55 510.846 237.915C505.088 234.079 497.17 234.079 491.412 234.079H464.551V272.984H491.176L491.196 272.964Z" fill="#E7FF5C"/>
<path d="M735.616 373.314H678.298L625.52 297.688V373.314H579.953V205.245H625.52V273.2L682.366 205.245H732.727L667.236 281.363L735.596 373.314H735.616Z" fill="#E7FF5C"/>
<path d="M722.175 320.012H770.14C770.611 336.573 782.381 348.335 801.323 348.335C818.831 348.335 827.477 339.701 827.477 330.574C827.477 321.448 821.719 315.921 801.814 310.414L771.594 302.015C744.733 294.581 725.771 280.163 725.771 252.549C725.771 220.371 755.52 201.41 797.727 201.41C842.587 201.41 866.815 219.663 871.118 255.184H825.551C823.881 238.132 813.565 230.205 797.727 230.205C781.89 230.205 774.227 238.604 774.227 247.494C774.227 256.384 779.984 262.147 795.33 266.218L825.551 274.145C842.823 278.708 875.913 286.871 875.913 322.648C875.913 352.662 851.449 377.15 801.323 377.15C748.545 377.15 723.846 352.426 722.175 320.012Z" fill="#E7FF5C"/>
<path d="M347.749 490.704C347.749 441.729 386.615 402.824 437.939 402.824C489.264 402.824 528.13 441.729 528.13 490.704C528.13 539.679 489.264 578.583 437.939 578.583C386.615 578.583 347.749 539.679 347.749 490.704ZM509.896 490.704C509.896 450.599 479.439 420.113 437.939 420.113C396.44 420.113 365.983 450.599 365.983 490.704C365.983 530.808 396.44 561.295 437.939 561.295C479.439 561.295 509.896 530.808 509.896 490.704ZM391.881 490.468C391.881 460.217 411.314 440.529 439.845 440.529C465.272 440.529 479.419 454.927 482.779 470.052H460.713C458.08 463.561 451.124 457.798 439.845 457.798C425.462 457.798 414.419 469.56 414.419 490.448C414.419 511.336 425.934 523.334 440.808 523.334C452.559 523.334 459.75 516.843 461.204 510.136H483.035C480.166 525.734 465.999 540.859 440.828 540.859C411.334 540.859 391.901 521.171 391.901 490.448L391.881 490.468Z" fill="#E7FF5C"/>
<path d="M73.1602 118.602H121.124C121.596 135.163 133.366 146.925 152.308 146.925C169.816 146.925 178.461 138.29 178.461 129.164C178.461 120.038 172.704 114.511 152.799 109.004L122.578 100.605C95.698 93.1508 76.756 78.7533 76.756 51.1385C76.756 18.9606 106.505 0 148.712 0C193.572 0 217.8 18.2525 222.103 53.7741H176.536C174.866 36.7214 164.55 28.7949 148.712 28.7949C132.875 28.7949 125.211 37.1934 125.211 46.0837C125.211 54.9739 130.969 60.7368 146.315 64.8083L176.536 72.7347C193.808 77.2979 226.897 85.4604 226.897 121.238C226.897 151.252 202.434 175.74 152.308 175.74C99.5493 175.759 74.8304 151.016 73.1602 118.602Z" fill="#E7FF5C"/>
<path d="M352.594 171.904L340.844 134.455H275.844L263.366 171.904H221.395L279.184 3.83496H344.185L400.559 171.904H352.594ZM285.669 104.912H331.491L309.425 34.0854L285.688 104.912H285.669Z" fill="#E7FF5C"/>
<path d="M406.296 171.904V3.83496H451.863V171.904H406.296Z" fill="#E7FF5C"/>
<path d="M584.281 3.83496H620.259V171.904H571.804L503.443 62.1722V171.904H467.465V3.83496H515.921L584.281 111.403V3.83496Z" fill="#E7FF5C"/>
<path d="M775.431 33.3773H726.268V171.904H680.701V33.3773H631.538V3.83496H775.45V33.3576L775.431 33.3773Z" fill="#E7FF5C"/>
<circle cx="780.495" cy="153.311" r="22.4475" fill="#E7FF5C"/>
</svg>
