<svg width="1039" height="316" viewBox="0 0 1039 316" fill="none" xmlns="http://www.w3.org/2000/svg">
<path d="M0 212.938H86.115C86.9617 242.672 108.094 263.789 142.102 263.789C173.535 263.789 189.058 248.286 189.058 231.901C189.058 215.516 178.721 205.593 142.984 195.705L88.7256 180.627C40.4645 167.243 6.45598 141.394 6.45598 91.8141C6.45598 34.0418 59.8677 0 135.646 0C216.187 0 259.686 32.7706 267.412 96.546H185.601C182.602 65.9296 164.081 51.6984 135.646 51.6984C107.212 51.6984 93.4529 66.7771 93.4529 82.7386C93.4529 98.7001 103.79 109.047 131.342 116.357L185.601 130.588C216.61 138.78 276.019 153.435 276.019 217.67C276.019 271.558 232.098 315.523 142.102 315.523C47.3791 315.558 2.99868 271.134 0 212.938Z" fill="#DCDCDC"/>
<path d="M662.427 6.88574H729.174L624.538 308.636H556.485L501.38 125.856L441.089 308.636H370.461L275.703 6.88574H359.666L410.467 189.666L469.488 6.88574H543.997L599.56 193.551L662.427 6.88574Z" fill="#DCDCDC"/>
<path d="M715.143 157.779C715.143 69.8493 784.924 0 877.071 0C969.219 0 1039 69.8493 1039 157.779C1039 245.709 969.219 315.558 877.071 315.558C784.924 315.558 715.143 245.709 715.143 157.779ZM1006.26 157.779C1006.26 85.7755 951.58 31.0402 877.071 31.0402C802.563 31.0402 747.881 85.7755 747.881 157.779C747.881 229.782 802.563 284.518 877.071 284.518C951.58 284.518 1006.26 229.782 1006.26 157.779ZM794.378 157.355C794.378 103.044 829.269 67.6952 880.493 67.6952C926.144 67.6952 951.545 93.5444 957.577 120.7H917.959C913.232 109.047 900.743 98.7001 880.493 98.7001C854.669 98.7001 834.843 119.817 834.843 157.32C834.843 194.822 855.516 216.363 882.222 216.363C903.319 216.363 916.231 204.71 918.841 192.668H958.036C952.885 220.672 927.449 247.827 882.257 247.827C829.304 247.827 794.414 212.479 794.414 157.32L794.378 157.355Z" fill="#DCDCDC"/>
<circle cx="309.5" cy="286.175" r="29.5" fill="#DCDCDC"/>
</svg>
